{"title":"Martian Land (2015) HDTV mp4","uid":12762489,"size":531002407,"categoryP":"video","categoryS":"movies","magnet":"?xt=urn:btih:0a137c1fe07ff03b8d6e4c34ab6192118e92ace6&amp;dn=Martian+Land+%282015%29+HDTV+mp4&amp;tr=udp%3A%2F%2Ftracker.leechers-paradise.org%3A6969&amp;tr=udp%3A%2F%2Fzer0day.ch%3A1337&amp;tr=udp%3A%2F%2Fopen.demonii.com%3A1337&amp;tr=udp%3A%2F%2Ftracker.coppersurfer.tk%3A6969&amp;tr=udp%3A%2F%2Fexodus.desync.com%3A6969","seeders":0,"leechers":1,"uploader":"Pyre8Storm","files":1,"time":1447548560,"description":"Martian Land (2015)\r\n\r\nIn the distant future, a large portion of humanity lives on Mars, in cities that resemble those once found on Earth. The cities are protected from the inhospitable Martian atmosphere by dome-like force-fields. When a massive sandstorm breaks through the dome and destroys Mars New York, those in Mars Los Angeles must figure out how to stop the storm before it wipes them out next.\r\n\r\nNOTE:\r\n\r\nThis is a SyFy movie, and we all know what means, so don't expect any Spielberg magic here.\r\n\r\n\r\nScreens: \nhttp://extraimago.com/image/4UR\r\n\r\nIMDb: \nhttp://www.imdb.com/title/tt4943934/\r\n\r\n\r\n\r\nVideo\r\nID                                       : mp4\r\nFormat                                   : AVC\r\nFormat/Info                              : Advanced Video Codec\r\nFormat profile                           :   \r\nFormat settings, CABAC                   : Yes\r\nFormat settings, ReFrames                : 4 frames\r\nCodec ID                                 : avc1\r\nCodec ID/Info                            : Advanced Video Coding\r\nDuration                                 : 1h 22mn\r\nBit rate                                 : 726 Kbps\r\nWidth                                    : 852 pixels\r\nHeight                                   : 480 pixels\r\nDisplay aspect ratio                     : 16:9\r\nFrame rate mode                          : Variable\r\nFrame rate                               : 25.000 fps\r\nMinimum frame rate                       : 6.250 fps\r\nMaximum frame rate                       : 25.000 fps\r\nColor space                              : YUV\r\nChroma subsampling                       : 4:2:0\r\nBit depth                                : 8 bits\r\nScan type                                : Progressive\r\nBits/(Pixel*Frame)                       : 0.071\r\nStream size                              : 427 MiB (84%)\r\n\r\n\r\nAudio\r\nID                                       : 2\r\nFormat                                   : AAC\r\nFormat/Info                              : Advanced Audio Codec\r\nFormat profile                           : LC\r\nCodec ID                                 : 40\r\nDuration                                 : 1h 22mn\r\nBit rate mode                            : Variable\r\nBit rate                                 : 128 Kbps\r\nChannel(s)                               : 2 channels\r\nChannel positions                        : Front: L R\r\nSampling rate                            : 48.0 KHz\r\nCompression mode                         : Lossy\r\nStream size                              : 75.4 MiB (15%)\r\nTitle                                    : Stereo\r\n\r\n\r\nPlease seed for others","torrent":{"xt":"urn:btih:0a137c1fe07ff03b8d6e4c34ab6192118e92ace6","amp;dn":"Martian+Land+%282015%29+HDTV+mp4","amp;tr":["udp%3A%2F%2Ftracker.leechers-paradise.org%3A6969","udp%3A%2F%2Fzer0day.ch%3A1337","udp%3A%2F%2Fopen.demonii.com%3A1337","udp%3A%2F%2Ftracker.coppersurfer.tk%3A6969","udp%3A%2F%2Fexodus.desync.com%3A6969"],"infoHash":"0a137c1fe07ff03b8d6e4c34ab6192118e92ace6","infoHashBuffer":{"type":"Buffer","data":[10,19,124,31,224,127,240,59,141,110,76,52,171,97,146,17,142,146,172,230]},"announce":[],"urlList":[]}}